<svg width="24" height="24" viewBox="0 0 24 24" fill="none" xmlns="http://www.w3.org/2000/svg">
<path d="M14.2066 9.79347C16.0737 11.6625 16.0481 14.659 14.2179 16.4994C14.2144 16.5031 14.2104 16.5072 14.2066 16.511L12.1066 18.611C10.2544 20.4631 7.24104 20.4629 5.38914 18.611C3.53695 16.7591 3.53695 13.7453 5.38914 11.8935L6.5487 10.7339C6.8562 10.4264 7.38576 10.6308 7.40163 11.0653C7.42188 11.6192 7.5212 12.1756 7.70445 12.7129C7.76651 12.8948 7.72217 13.0961 7.58623 13.232L7.17726 13.641C6.30145 14.5168 6.27398 15.9428 7.14117 16.8272C8.01691 17.7203 9.45635 17.7256 10.3388 16.8431L12.4388 14.7435C13.3198 13.8625 13.3161 12.4386 12.4388 11.5613C12.3232 11.4458 12.2067 11.3562 12.1157 11.2935C12.0513 11.2493 11.9981 11.1907 11.9604 11.1223C11.9227 11.0539 11.9016 10.9776 11.8986 10.8996C11.8862 10.5693 12.0032 10.2291 12.2641 9.96813L12.9221 9.31016C13.0946 9.13763 13.3652 9.11644 13.5653 9.25607C13.7944 9.41605 14.009 9.59588 14.2066 9.79347V9.79347ZM18.6108 5.38904C16.7589 3.53711 13.7455 3.53686 11.8933 5.38904L9.79335 7.48904C9.7896 7.49279 9.78554 7.49685 9.7821 7.5006C7.95191 9.34097 7.92626 12.3375 9.79335 14.2065C9.99094 14.4041 10.2055 14.5839 10.4346 14.7439C10.6347 14.8835 10.9054 14.8623 11.0779 14.6898L11.7358 14.0318C11.9968 13.7709 12.1137 13.4306 12.1014 13.1004C12.0984 13.0224 12.0772 12.9461 12.0395 12.8777C12.0018 12.8093 11.9487 12.7507 11.8843 12.7065C11.7933 12.6438 11.6768 12.5541 11.5611 12.4387C10.6838 11.5614 10.6802 10.1375 11.5611 9.25651L13.6611 7.15682C14.5436 6.27435 15.983 6.27967 16.8588 7.17276C17.726 8.05713 17.6985 9.48319 16.8227 10.359L16.4137 10.768C16.2778 10.9039 16.2334 11.1052 16.2955 11.2871C16.4787 11.8244 16.5781 12.3808 16.5983 12.9346C16.6142 13.3692 17.1437 13.5736 17.4512 13.2661L18.6108 12.1065C20.463 10.2547 20.463 7.24092 18.6108 5.38904V5.38904Z" fill="url(#paint0_linear_1201_7268)"/>
<defs>
<linearGradient id="paint0_linear_1201_7268" x1="4.8" y1="5.25186" x2="21.917" y2="13.942" gradientUnits="userSpaceOnUse">
<stop stop-color="#2563eb"/>
<stop offset="1" stop-color="#00D1FF"/>
</linearGradient>
</defs>
</svg>
