<svg width="24" height="24" viewBox="0 0 24 24" fill="none" xmlns="http://www.w3.org/2000/svg">
<path d="M5.39137 5.39137C5.64204 5.14078 5.98197 5 6.33642 5C6.69087 5 7.0308 5.14078 7.28147 5.39137L12.0081 10.118L16.7347 5.39137C16.9868 5.14788 17.3244 5.01315 17.6749 5.01619C18.0254 5.01924 18.3607 5.15982 18.6085 5.40765C18.8563 5.65549 18.9969 5.99075 18.9999 6.34123C19.003 6.69171 18.8683 7.02937 18.6248 7.28147L13.8982 12.0081L18.6248 16.7347C18.8683 16.9868 19.003 17.3244 18.9999 17.6749C18.9969 18.0254 18.8563 18.3607 18.6085 18.6085C18.3607 18.8563 18.0254 18.9969 17.6749 18.9999C17.3244 19.003 16.9868 18.8683 16.7347 18.6248L12.0081 13.8982L7.28147 18.6248C7.02937 18.8683 6.69171 19.003 6.34123 18.9999C5.99075 18.9969 5.65549 18.8563 5.40765 18.6085C5.15982 18.3607 5.01924 18.0254 5.01619 17.6749C5.01315 17.3244 5.14788 16.9868 5.39137 16.7347L10.118 12.0081L5.39137 7.28147C5.14078 7.0308 5 6.69087 5 6.33642C5 5.98197 5.14078 5.64204 5.39137 5.39137V5.39137Z" fill="url(#paint0_linear_1201_7275)"/>
<defs>
<linearGradient id="paint0_linear_1201_7275" x1="5.7" y1="6.09538" x2="20.6774" y2="13.6992" gradientUnits="userSpaceOnUse">
<stop stop-color="#2563eb"/>
<stop offset="1" stop-color="#00D1FF"/>
</linearGradient>
</defs>
</svg>
